HIERARCHY
ROOT Hips
{
	OFFSET 0.0000 0.0000 0.0000
	CHANNELS 6 Xposition Yposition Zposition Zrotation Xrotation Yrotation
	JOINT Ab
	{
		OFFSET -0.0000 8.1305 -0.0000
		CHANNELS 3 Zrotation Xrotation Yrotation
		JOINT Chest
		{
			OFFSET -0.0000 26.2902 -0.0000
			CHANNELS 3 Zrotation Xrotation Yrotation
			JOINT Neck
			{
				OFFSET -0.0000 26.2902 0.0000
				CHANNELS 3 Zrotation Xrotation Yrotation
				JOINT Head
				{
					OFFSET -0.0000 10.8167 0.0000
					CHANNELS 3 Zrotation Xrotation Yrotation
					End Site
					{
						OFFSET -0.0000 16.7167 0.0000
					}
				}
			}
			JOINT LeftCollar
			{
				OFFSET -0.0000 26.2902 0.0000
				CHANNELS 3 Zrotation Xrotation Yrotation
				JOINT LeftShoulder
				{
					OFFSET 19.6667 -0.0000 0.0000
					CHANNELS 3 Zrotation Xrotation Yrotation
					JOINT LeftElbow
					{
						OFFSET 27.2190 0.0000 0.0000
						CHANNELS 3 Zrotation Xrotation Yrotation
						JOINT LeftWrist
						{
							OFFSET 30.7431 0.0000 0.0000
							CHANNELS 3 Zrotation Xrotation Yrotation
							End Site
							{
								OFFSET 0.0000 -14.7500 0.0000
							}
						}
					}
				}
			}
			JOINT RightCollar
			{
				OFFSET -0.0000 26.2902 0.0000
				CHANNELS 3 Zrotation Xrotation Yrotation
				JOINT RightShoulder
				{
					OFFSET -19.6667 0.0000 0.0000
					CHANNELS 3 Zrotation Xrotation Yrotation
					JOINT RightElbow
					{
						OFFSET -27.2190 0.0000 0.0000
						CHANNELS 3 Zrotation Xrotation Yrotation
						JOINT RightWrist
						{
							OFFSET -30.7431 0.0000 0.0000
							CHANNELS 3 Zrotation Xrotation Yrotation
							End Site
							{
								OFFSET -0.0000 -14.7500 0.0000
							}
						}
					}
				}
			}
		}
	}
	JOINT LeftHip
	{
		OFFSET 11.8000 0.0000 0.0000
		CHANNELS 3 Zrotation Xrotation Yrotation
		JOINT LeftKnee
		{
			OFFSET -0.0000 -39.7832 0.0000
			CHANNELS 3 Zrotation Xrotation Yrotation
			JOINT LeftAnkle
			{
				OFFSET -0.0000 -41.7317 0.0000
				CHANNELS 3 Zrotation Xrotation Yrotation
				End Site
				{
					OFFSET -0.0000 -4.9167 16.7167
				}
			}
		}
	}
	JOINT RightHip
	{
		OFFSET -11.8000 0.0000 0.0000
		CHANNELS 3 Zrotation Xrotation Yrotation
		JOINT RightKnee
		{
			OFFSET -0.0000 -39.7832 0.0000
			CHANNELS 3 Zrotation Xrotation Yrotation
			JOINT RightAnkle
			{
				OFFSET -0.0000 -41.7317 0.0000
				CHANNELS 3 Zrotation Xrotation Yrotation
				End Site
				{
					OFFSET -0.0000 -4.9167 16.7167
				}
			}
		}
	}
}
MOTION
Frames: 13
Frame Time: 0.010000
-18.6860 96.7864 173.9675 357.8689 356.7863 179.3832 357.2038 348.0847 359.7640 2.4782 11.0578 359.8141 356.8862 358.0836 0.2982 0.1809 4.1749 0.3453 340.0190 357.3536 15.0382 321.5113 60.9682 335.6953 8.8143 357.3272 326.1946 91.2925 355.7690 346.4973 26.2404 355.8208 342.2999 46.4891 48.4366 3.6411 340.2310 354.3173 31.9846 269.7882 353.5917 8.9969 355.4281 2.1983 0.7915 358.2486 6.5060 4.6855 355.4244 352.3362 13.0161 357.2701 4.5809 11.1093 6.6922 7.4507 11.2397 348.5456 343.4532 309.3895 
-18.7188 96.7806 173.9607 357.8739 356.7389 179.3791 357.1934 348.0855 359.7633 2.4603 11.0765 359.8159 356.9139 358.0736 0.3027 0.1517 4.2562 0.3488 340.0435 357.3578 15.0312 321.5065 60.9739 335.6551 8.8828 357.3158 326.2223 91.3105 355.7810 346.5454 26.2235 355.8500 342.2769 46.4817 48.4831 3.7256 340.2371 354.2836 31.9867 269.8228 353.6236 8.9408 355.4123 2.1468 0.7807 358.2463 6.5246 4.6870 355.4357 352.3229 13.0334 357.2517 4.5067 11.0813 6.7038 7.5109 11.2611 348.6340 343.2607 309.3354 
-18.7559 96.7759 173.9485 357.8796 356.7097 179.3728 357.1878 348.0967 359.7634 2.4439 11.1136 359.8155 356.9443 358.0545 0.3013 0.0984 4.3407 0.3494 340.0670 357.3346 15.0102 321.3998 60.9541 335.7599 8.9235 357.2641 326.1677 91.7160 355.8089 346.7437 26.1877 355.8302 342.2773 46.5197 48.5451 3.7544 340.1631 354.2506 31.9660 269.9726 353.5875 9.0208 355.3926 2.1170 0.7585 358.2449 6.5466 4.6910 355.4784 352.2999 13.0424 357.2296 4.4646 11.1072 6.7219 7.5399 11.2047 348.6569 343.2130 309.3453 
-18.7931 96.7713 173.9354 357.8829 356.6740 179.3598 357.1837 348.0906 359.7671 2.4184 11.1729 359.8224 357.0079 357.9996 0.2938 359.9914 4.4597 0.3463 340.0826 357.3453 15.0013 321.3999 60.9190 335.7607 8.8792 357.2807 326.1369 91.9061 355.8120 346.8317 26.1712 355.8608 342.2964 46.5469 48.5283 3.7563 340.1901 354.2571 32.0180 269.9791 353.6200 9.0101 355.3752 2.0882 0.7255 358.2324 6.5530 4.7101 355.3986 352.2739 13.0615 357.2056 4.4082 11.1026 6.7358 7.5937 11.2171 348.6085 343.2934 309.3821 
-18.8326 96.7683 173.9213 357.8820 356.6306 179.3432 357.1739 348.0777 359.7724 2.3989 11.2269 359.8266 357.0198 357.9761 0.2950 359.9729 4.5386 0.3485 340.0900 357.3451 15.0214 321.5225 60.9350 335.6177 8.8901 357.2900 326.1597 91.8689 355.8122 346.8539 26.1501 355.8649 342.3212 46.5804 48.5082 3.7597 340.1564 354.2488 32.0458 270.0118 353.6230 9.0085 355.3192 1.9874 0.7111 358.2867 6.6814 4.7862 355.5282 352.2120 12.9919 357.1713 4.3413 11.0917 6.7570 7.6510 11.2294 348.6303 343.2246 309.3697 
-18.8718 96.7646 173.9100 357.8836 356.5790 179.3286 357.1655 348.0608 359.7714 2.3712 11.2840 359.8320 357.0417 357.9426 0.2881 359.9559 4.6227 0.3438 340.1028 357.3490 15.0267 321.5675 60.9097 335.5502 8.8928 357.2871 326.1666 91.7705 355.8109 346.7899 26.1389 355.8649 342.3331 46.5841 48.5054 3.7974 340.1476 354.2464 32.0554 270.0564 353.6249 9.0420 355.2603 1.8585 0.6903 358.3530 6.8460 4.8500 355.4989 352.1183 12.9263 357.1416 4.2577 11.0492 6.7751 7.7242 11.2601 348.6720 343.1101 309.3473 
-18.9105 96.7605 173.9030 357.8833 356.5280 179.3159 357.1443 348.0578 359.7706 2.3600 11.3329 359.8368 357.0755 357.8965 0.2808 359.9057 4.7266 0.3378 340.1103 357.3614 15.0198 321.5568 60.8627 335.5552 8.8784 357.2885 326.1376 91.6803 355.8256 346.7075 26.1248 355.8687 342.3384 46.5556 48.5120 3.8562 340.1726 354.2504 32.0823 270.0703 353.6542 9.0433 355.2381 1.8159 0.6314 358.3413 6.8405 4.8831 355.5204 352.1104 12.9483 357.1080 4.1672 10.9998 6.7993 7.8074 11.3038 348.6848 343.0573 309.3471 
-18.9498 96.7569 173.8947 357.8830 356.4767 179.2979 357.1207 348.0778 359.7854 2.3583 11.3392 359.8485 357.0893 357.8806 0.2637 359.8703 4.8222 0.3215 340.1033 357.3428 15.0228 321.6207 60.8841 335.4962 8.9339 357.2783 326.1854 91.3701 355.7678 346.5605 26.1098 355.8753 342.3270 46.5219 48.5504 3.9187 340.1416 354.2525 32.0938 270.0693 353.6555 8.9547 355.2142 1.7770 0.5700 358.3292 6.8287 4.9336 355.5048 352.1035 12.9580 357.0720 4.0766 10.9609 6.8281 7.8873 11.3414 348.6775 343.0234 309.3448 
-18.9915 96.7529 173.8845 357.8879 356.4315 179.2832 357.0556 348.1528 359.8233 2.4282 11.2555 359.8889 357.7188 357.4743 0.2894 358.7852 5.7107 0.4030 340.0543 357.3499 14.9969 321.6175 60.9026 335.5518 8.8646 357.2999 326.1646 91.3933 355.7470 346.5374 26.0600 355.8676 342.2739 46.5129 48.6549 3.9467 340.0631 354.2436 32.0622 270.0526 353.6487 8.8664 355.1943 1.7498 0.4904 358.3121 6.8122 4.9688 355.4276 352.0849 13.0058 357.0404 3.9932 10.9290 6.8548 7.9679 11.3659 348.6954 342.9669 309.3457 
-19.0324 96.7460 173.8855 357.8952 356.3651 179.2774 357.0411 348.1569 359.8190 2.4077 11.2944 359.8864 357.9043 357.3344 0.2692 358.5514 5.9682 0.3912 340.0707 357.3417 15.0051 321.8447 60.9585 335.2935 8.9169 357.2791 326.1908 91.3387 355.6494 346.5087 26.0697 355.8623 342.2317 46.4331 48.6839 4.0242 340.1065 354.2429 32.1120 270.0209 353.6813 8.8133 355.1816 1.6849 0.4074 358.2908 6.8101 4.9974 355.6867 352.0958 13.0342 357.0091 3.8684 10.8707 6.8950 8.0790 11.3933 348.7011 342.9226 309.3564 
-19.0729 96.7385 173.8709 357.9047 356.3240 179.2596 357.0301 348.1643 359.8314 2.3935 11.3509 359.8961 357.2448 357.8093 0.1664 359.6886 5.1572 0.2341 340.0741 357.3440 15.0102 321.9377 60.9651 335.2034 8.9054 357.2841 326.1920 91.4760 355.6269 346.5454 26.0337 355.8739 342.2534 46.4845 48.7240 4.0448 340.0611 354.2106 32.0953 270.0797 353.6269 8.8362 355.1658 1.6721 0.3436 358.2773 6.7754 5.0717 355.6225 352.0826 13.0114 356.9806 3.7881 10.8509 6.9252 8.1684 11.4361 348.7102 342.8701 309.3400 
-19.1139 96.7290 173.8764 357.9123 356.2515 179.2511 356.9962 348.1694 359.8296 2.4013 11.3992 359.9073 357.9043 357.2507 0.1998 358.5867 6.1421 0.3281 340.0820 357.3563 14.9924 321.9609 60.9219 335.1697 8.9084 357.2893 326.1229 91.6192 355.6929 346.6418 26.0516 355.8860 342.3257 46.4477 48.6424 4.0359 340.0719 354.2170 32.1725 270.3831 353.4311 8.3995 355.1507 1.5960 0.3021 358.2592 6.7757 5.0953 355.4676 352.0828 13.0367 356.9530 3.6434 10.7736 6.9611 8.2928 11.4710 348.7077 342.8292 309.3498 
-19.1566 96.7214 173.8731 357.9249 356.1892 179.2439 356.9813 348.1729 359.8324 2.4000 11.4536 359.9109 357.8932 357.2518 0.1606 358.6109 6.1670 0.2865 340.0883 357.3507 14.9759 321.9496 60.8845 335.1537 8.9268 357.2708 326.0860 91.7064 355.7241 346.6818 26.0339 355.8848 342.3595 46.4385 48.6287 4.0686 340.0666 354.2049 32.1753 270.3307 353.4600 8.6465 355.1411 1.5437 0.2519 358.2382 6.7615 5.1136 355.8122 352.1127 13.0318 356.9297 3.5199 10.7387 6.9914 8.4141 11.5109 348.7151 342.7803 309.3424 
